# xmcd CD database file
#
# Track frame offsets:
#	150
#	15356
#	29713
#	43848
#	58086
#	73026
#	85769
#	102408
#	116695
#	132427
#	146664
#	163366
#
# Disc length: 2364 seconds
#
# Revision: 2
# Processed by: cddbd v1.5.2PL0 Copyright (c) Steve Scherf et al.
# Submitted via: CDex 1.70beta2
#
DISCID=b1093a0c
DTITLE=Victor e Leo - Borboletas
DYEAR=2008
DGENRE=Country
TTITLE0=Borboletas
TTITLE1=Lado Errado
TTITLE2=Timidez
TTITLE3=Tanta Solidao
TTITLE4=Nada Normal
TTITLE5=Sem Transito Sem Aviao
TTITLE6=Luz Paixao Rodeio
TTITLE7=Noite Estelar
TTITLE8=Razao do Meu Astral
TTITLE9=Você Sabia
TTITLE10=Deus e Eu no Sertao
TTITLE11=Tem Que Ser Voce
EXTD=YEAR: 2008
EXTT0=
EXTT1=
EXTT2=
EXTT3=
EXTT4=
EXTT5=
EXTT6=
EXTT7=
EXTT8=
EXTT9=
EXTT10=
EXTT11=
PLAYORDER=
